<?xml version="1.0" encoding="utf-8"?>
<!-- Generator: Adobe Illustrator 14.0.0, SVG Export Plug-In . SVG Version: 6.00 Build 43363)  -->
<!DOCTYPE svg PUBLIC "-//W3C//DTD SVG 1.1//EN" "http://www.w3.org/Graphics/SVG/1.1/DTD/svg11.dtd">
<svg version="1.1" id="church-svg" xmlns="http://www.w3.org/2000/svg" xmlns:xlink="http://www.w3.org/1999/xlink" x="0px" y="0px"
	 width="202.019px" height="234.884px" viewBox="0 0 202.019 234.884" enable-background="new 0 0 202.019 234.884"
	 xml:space="preserve">
<polyline fill="none" stroke="#414142" stroke-width="7" points="2.174,184.001 101.174,105.56 199.841,183.98 "/>
<g>
	<polygon fill="#F5B038" points="197.577,182.933 101.409,105.56 5.244,182.922 5.244,234 197.575,234 	"/>
	<path fill="#F5F6F6" d="M109.379,112.447c0-3.821-3.396-6.887-7.279-6.887s-7.152,3.066-7.152,6.887
		c0.035,0-0.016,15.979-0.016,15.979l14.457,0.014L109.379,112.447z"/>
	<path fill="#F5F6F6" d="M109.379,144.564c0-3.821-3.396-6.887-7.279-6.887s-7.152,3.066-7.152,6.887
		c0.035,0-0.016,15.979-0.016,15.979l14.457,0.014L109.379,144.564z"/>
	<rect x="99.41" fill="#F15E24" width="5.5" height="44.334"/>
	<rect x="85.732" y="16.667" fill="#F15E24" width="32.855" height="5.5"/>
	<polygon fill="#F15E24" points="66.119,124 102.287,36.606 138.459,124 	"/>
	<polygon fill="#414142" points="70.998,124 102.287,53 133.578,124 	"/>
	<polygon fill="#F15E24" points="128.52,122.933 102.352,60.903 76.187,122.922 76.187,234 128.518,234 	"/>
	<circle fill="#F5F6F6" cx="103.186" cy="123.487" r="11.119"/>
</g>
<rect x="94.607" y="200.116" fill="#F5F6F6" width="13.605" height="34.768"/>
<rect x="47.273" y="190.116" fill="#F5F6F6" width="13.605" height="34.768"/>
<rect x="149.273" y="190.116" fill="#F5F6F6" width="13.605" height="34.768"/>
</svg>
